HIERARCHY
ROOT Hips
{
	OFFSET 0.000000 83.214638 0.000000
	CHANNELS 6 Xposition Yposition Zposition Xrotation Yrotation Zrotation
	JOINT Pelvis
	{
		OFFSET 0.000000 0.000000 0.000000
		CHANNELS 3 Xrotation Yrotation Zrotation
		JOINT LeftUpLeg
		{
			OFFSET 8.479700 -4.795502 -0.379100
			CHANNELS 3 Xrotation Yrotation Zrotation
			JOINT LeftLeg
			{
				OFFSET 0.024144 -32.555107 0.112900
				CHANNELS 3 Xrotation Yrotation Zrotation
				JOINT LeftFoot
				{
					OFFSET -0.024144 -32.638630 -3.012600
					CHANNELS 3 Xrotation Yrotation Zrotation
					JOINT LeftToeBase
					{
						OFFSET 0.970200 -13.225400 11.864200
						CHANNELS 3 Xrotation Yrotation Zrotation
						End Site
						{
							OFFSET 0.000000 12.319262 0.000000
						}
					}
					JOINT LFootTongue
					{
						OFFSET 1.142400 -1.059800 6.665200
						CHANNELS 3 Xrotation Yrotation Zrotation
						End Site
						{
							OFFSET 0.000000 12.319262 0.000000
						}
					}
				}
				JOINT LeftPantLeg
				{
					OFFSET 0.918482 -16.533964 -2.284700
					CHANNELS 3 Xrotation Yrotation Zrotation
					End Site
					{
						OFFSET 0.350399 24.744368 0.000000
					}
				}
			}
		}
		JOINT RightUpLeg
		{
			OFFSET -8.479700 -4.795502 -0.379100
			CHANNELS 3 Xrotation Yrotation Zrotation
			JOINT RightLeg
			{
				OFFSET -0.023144 -32.555092 0.112900
				CHANNELS 3 Xrotation Yrotation Zrotation
				JOINT RightFoot
				{
					OFFSET 0.023144 -32.638641 -3.012700
					CHANNELS 3 Xrotation Yrotation Zrotation
					JOINT RightToeBase
					{
						OFFSET -0.970200 -13.225400 11.864200
						CHANNELS 3 Xrotation Yrotation Zrotation
						End Site
						{
							OFFSET 0.000000 12.319244 0.000000
						}
					}
					JOINT RFootTongue
					{
						OFFSET -1.142200 -1.059800 6.665200
						CHANNELS 3 Xrotation Yrotation Zrotation
						End Site
						{
							OFFSET 0.000000 12.319243 0.000000
						}
					}
				}
				JOINT RightPantLeg
				{
					OFFSET -0.919482 -16.533978 -2.284800
					CHANNELS 3 Xrotation Yrotation Zrotation
					End Site
					{
						OFFSET -0.350400 24.744419 0.000000
					}
				}
			}
		}
	}
	JOINT Spine
	{
		OFFSET 0.000000 7.722000 1.166200
		CHANNELS 3 Xrotation Yrotation Zrotation
		JOINT Spine1
		{
			OFFSET 0.000000 12.024101 0.248800
			CHANNELS 3 Xrotation Yrotation Zrotation
			JOINT Spine2
			{
				OFFSET 0.000000 11.502998 -0.491200
				CHANNELS 3 Xrotation Yrotation Zrotation
				JOINT Neck
				{
					OFFSET 0.000000 18.430702 -3.123100
					CHANNELS 3 Xrotation Yrotation Zrotation
					JOINT Head
					{
						OFFSET 0.000000 9.051102 1.034000
						CHANNELS 3 Xrotation Yrotation Zrotation
						JOINT HairB
						{
							OFFSET 0.208400 24.786102 24.822300
							CHANNELS 3 Xrotation Yrotation Zrotation
							End Site
							{
								OFFSET 0.000000 32.263779 0.000000
							}
						}
						JOINT HairA
						{
							OFFSET -7.081100 24.428299 23.196600
							CHANNELS 3 Xrotation Yrotation Zrotation
							End Site
							{
								OFFSET 0.000000 32.263779 0.000000
							}
						}
						JOINT Hat
						{
							OFFSET 16.728800 15.048294 -15.439601
							CHANNELS 3 Xrotation Yrotation Zrotation
							End Site
							{
								OFFSET 0.000000 32.263779 0.000000
							}
						}
					}
				}
				JOINT LeftShoulder
				{
					OFFSET 6.197800 13.665199 -4.064700
					CHANNELS 3 Xrotation Yrotation Zrotation
					JOINT LeftArm
					{
						OFFSET 7.778100 -0.187103 -1.709300
						CHANNELS 3 Xrotation Yrotation Zrotation
						JOINT LeftForeArm
						{
							OFFSET 22.049376 0.000000 0.000000
							CHANNELS 3 Xrotation Yrotation Zrotation
							JOINT LeftHand
							{
								OFFSET 23.009392 0.000000 0.000000
								CHANNELS 3 Xrotation Yrotation Zrotation
								JOINT LeftHandThumb1
								{
									OFFSET 3.507191 -2.063065 3.133727
									CHANNELS 3 Xrotation Yrotation Zrotation
									JOINT LeftHandThumb2
									{
										OFFSET 3.101337 -1.790558 1.790558
										CHANNELS 3 Xrotation Yrotation Zrotation
										JOINT LeftHandThumb3
										{
											OFFSET 3.058640 -1.765907 1.765906
											CHANNELS 3 Xrotation Yrotation Zrotation
											End Site
											{
												OFFSET -0.415260 3.926476 -0.049563
											}
										}
									}
								}
								JOINT LeftHandIndex1
								{
									OFFSET 11.334419 -0.901459 3.706815
									CHANNELS 3 Xrotation Yrotation Zrotation
									JOINT LeftHandIndex2
									{
										OFFSET 3.283112 0.000000 0.000000
										CHANNELS 3 Xrotation Yrotation Zrotation
										JOINT LeftHandIndex3
										{
											OFFSET 3.323853 0.000000 0.000000
											CHANNELS 3 Xrotation Yrotation Zrotation
											End Site
											{
												OFFSET -1.135597 3.097809 0.402452
											}
										}
									}
								}
								JOINT LeftHandMiddle1
								{
									OFFSET 11.335861 0.000000 0.000000
									CHANNELS 3 Xrotation Yrotation Zrotation
									JOINT LeftHandMiddle2
									{
										OFFSET 3.410492 0.000000 0.000000
										CHANNELS 3 Xrotation Yrotation Zrotation
										JOINT LeftHandMiddle3
										{
											OFFSET 3.312172 0.000000 0.000000
											CHANNELS 3 Xrotation Yrotation Zrotation
											End Site
											{
												OFFSET -1.150200 3.080154 0.400270
											}
										}
									}
								}
								JOINT LeftHandRing1
								{
									OFFSET 11.514786 -0.013176 -3.003090
									CHANNELS 3 Xrotation Yrotation Zrotation
									JOINT LeftHandRing2
									{
										OFFSET 3.053307 0.000000 0.000000
										CHANNELS 3 Xrotation Yrotation Zrotation
										JOINT LeftHandRing3
										{
											OFFSET 3.295807 0.000000 0.000000
											CHANNELS 3 Xrotation Yrotation Zrotation
											End Site
											{
												OFFSET -1.281006 3.013344 0.375733
											}
										}
									}
								}
								JOINT LeftHandPinky1
								{
									OFFSET 10.518692 -0.960396 -5.730441
									CHANNELS 3 Xrotation Yrotation Zrotation
									JOINT LeftHandPinky2
									{
										OFFSET 2.861649 0.000000 0.000000
										CHANNELS 3 Xrotation Yrotation Zrotation
										JOINT LeftHandPinky3
										{
											OFFSET 2.863380 0.000000 0.000000
											CHANNELS 3 Xrotation Yrotation Zrotation
											End Site
											{
												OFFSET -0.843597 2.711159 0.369971
											}
										}
									}
								}
							}
							JOINT LSleeve
							{
								OFFSET 6.676277 -0.344902 -1.011730
								CHANNELS 3 Xrotation Yrotation Zrotation
								End Site
								{
									OFFSET 0.000000 14.885353 0.000000
								}
							}
						}
					}
				}
				JOINT RightShoulder
				{
					OFFSET -6.197800 13.665199 -4.064700
					CHANNELS 3 Xrotation Yrotation Zrotation
					JOINT RightArm
					{
						OFFSET -7.778100 -0.187103 -1.709300
						CHANNELS 3 Xrotation Yrotation Zrotation
						JOINT RightForeArm
						{
							OFFSET -22.049376 0.000000 0.000000
							CHANNELS 3 Xrotation Yrotation Zrotation
							JOINT RightHand
							{
								OFFSET -23.009392 0.000000 0.000000
								CHANNELS 3 Xrotation Yrotation Zrotation
								JOINT RightHandThumb1
								{
									OFFSET -3.507191 -2.063065 3.133727
									CHANNELS 3 Xrotation Yrotation Zrotation
									JOINT RightHandThumb2
									{
										OFFSET -3.101337 -1.790558 1.790558
										CHANNELS 3 Xrotation Yrotation Zrotation
										JOINT RightHandThumb3
										{
											OFFSET -3.058640 -1.765907 1.765906
											CHANNELS 3 Xrotation Yrotation Zrotation
											End Site
											{
												OFFSET 0.415260 3.926476 -0.049563
											}
										}
									}
								}
								JOINT RightHandIndex1
								{
									OFFSET -11.334419 -0.901459 3.706815
									CHANNELS 3 Xrotation Yrotation Zrotation
									JOINT RightHandIndex2
									{
										OFFSET -3.283112 0.000000 0.000000
										CHANNELS 3 Xrotation Yrotation Zrotation
										JOINT RightHandIndex3
										{
											OFFSET -3.323853 0.000000 0.000000
											CHANNELS 3 Xrotation Yrotation Zrotation
											End Site
											{
												OFFSET 1.135597 3.097809 0.402452
											}
										}
									}
								}
								JOINT RightHandMiddle1
								{
									OFFSET -11.335861 0.000000 0.000000
									CHANNELS 3 Xrotation Yrotation Zrotation
									JOINT RightHandMiddle2
									{
										OFFSET -3.410492 0.000000 0.000000
										CHANNELS 3 Xrotation Yrotation Zrotation
										JOINT RightHandMiddle3
										{
											OFFSET -3.312172 0.000000 0.000000
											CHANNELS 3 Xrotation Yrotation Zrotation
											End Site
											{
												OFFSET 1.150200 3.080154 0.400270
											}
										}
									}
								}
								JOINT RightHandRing1
								{
									OFFSET -11.514786 -0.013176 -3.003090
									CHANNELS 3 Xrotation Yrotation Zrotation
									JOINT RightHandRing2
									{
										OFFSET -3.053307 0.000000 0.000000
										CHANNELS 3 Xrotation Yrotation Zrotation
										JOINT RightHandRing3
										{
											OFFSET -3.295807 0.000000 0.000000
											CHANNELS 3 Xrotation Yrotation Zrotation
											End Site
											{
												OFFSET 1.281006 3.013344 0.375733
											}
										}
									}
								}
								JOINT RightHandPinky1
								{
									OFFSET -10.518692 -0.960396 -5.730441
									CHANNELS 3 Xrotation Yrotation Zrotation
									JOINT RightHandPinky2
									{
										OFFSET -2.861649 0.000000 0.000000
										CHANNELS 3 Xrotation Yrotation Zrotation
										JOINT RightHandPinky3
										{
											OFFSET -2.863380 0.000000 0.000000
											CHANNELS 3 Xrotation Yrotation Zrotation
											End Site
											{
												OFFSET 0.843597 2.711159 0.369971
											}
										}
									}
								}
							}
							JOINT RSleeve
							{
								OFFSET -6.676277 -0.344902 -1.011730
								CHANNELS 3 Xrotation Yrotation Zrotation
								End Site
								{
									OFFSET 0.000000 14.885353 0.000000
								}
							}
						}
					}
				}
				JOINT Backpack
				{
					OFFSET 0.000000 -2.471497 36.677502
					CHANNELS 3 Xrotation Yrotation Zrotation
					End Site
					{
						OFFSET 0.000000 20.427315 0.000000
					}
				}
				JOINT Hood
				{
					OFFSET 0.000000 18.754097 -10.431000
					CHANNELS 3 Xrotation Yrotation Zrotation
					JOINT Hood1
					{
						OFFSET 0.000000 -5.011002 -7.685901
						CHANNELS 3 Xrotation Yrotation Zrotation
						End Site
						{
							OFFSET 0.000000 9.175140 0.000000
						}
					}
				}
				JOINT LHoodieString
				{
					OFFSET 5.250500 16.397697 3.089900
					CHANNELS 3 Xrotation Yrotation Zrotation
					JOINT LHoodieString1
					{
						OFFSET 0.257700 -6.364304 3.694600
						CHANNELS 3 Xrotation Yrotation Zrotation
						JOINT LHoodieString2
						{
							OFFSET 0.000000 -9.643799 2.679100
							CHANNELS 3 Xrotation Yrotation Zrotation
							End Site
							{
								OFFSET 0.000000 10.009018 0.000000
							}
						}
					}
				}
				JOINT RHoodieString
				{
					OFFSET -5.250500 16.397697 3.089900
					CHANNELS 3 Xrotation Yrotation Zrotation
					JOINT RHoodieString1
					{
						OFFSET -0.257700 -6.364304 3.694600
						CHANNELS 3 Xrotation Yrotation Zrotation
						JOINT RHoodieString2
						{
							OFFSET 0.000000 -9.643799 2.679100
							CHANNELS 3 Xrotation Yrotation Zrotation
							End Site
							{
								OFFSET 0.000000 10.009018 0.000000
							}
						}
					}
				}
			}
			JOINT LBackpack_Strap
			{
				OFFSET 15.223200 -7.719803 -6.610900
				CHANNELS 3 Xrotation Yrotation Zrotation
				End Site
				{
					OFFSET 0.000000 16.040596 0.000000
				}
			}
			JOINT RBackpack_Strap
			{
				OFFSET -15.223000 -7.719803 -6.610900
				CHANNELS 3 Xrotation Yrotation Zrotation
				End Site
				{
					OFFSET 0.000000 16.040596 0.000000
				}
			}
		}
	}
	JOINT BoyFacialAnim_Joint
	{
		OFFSET 1.000000 -82.208099 -1.550900
		CHANNELS 3 Xrotation Yrotation Zrotation
		End Site
		{
			OFFSET 0.000000 30.012791 0.000000
		}
	}
}
MOTION
Frames: 4
Frame Time: 0.033333
-0.108351 72.983879 -0.313206 -0.252380 -0.002204 -1.122278 0.000000 0.000000 0.000000 -37.206079 1.605388 26.159245 48.930447 -4.755182 -8.392784 -11.646052 -8.197744 -9.511049 0.000000 -0.000000 0.000000 0.000000 -0.000000 -0.000000 0.000001 -0.000001 -0.000000 -40.356487 -11.992480 -22.322986 49.578526 5.932803 -2.720617 -10.778587 3.392138 12.150641 0.000000 -0.000000 -0.000000 0.000000 -0.000000 -0.000000 -0.000000 0.000000 0.000001 16.586556 0.268485 0.410993 20.119543 0.469852 0.900696 12.592135 0.364575 0.927905 2.981571 -0.915418 0.127353 -21.725476 3.041513 -1.451454 -0.000001 -0.000000 0.000000 -0.000001 -0.000000 0.000000 -0.000001 -0.000000 0.000000 20.445924 -17.628648 8.705104 -33.570171 -17.336506 -36.862254 -2.640498 -52.136200 -20.395450 -54.784141 -19.506909 -15.020213 36.774544 8.584270 -16.863116 2.295277 23.044189 15.130536 -0.000003 0.000001 -0.000001 0.652344 9.453941 -24.543696 0.393118 2.026198 -21.957649 -0.000003 0.000002 -0.000001 0.652336 9.453938 -24.543697 0.393115 2.026194 -21.957663 0.000000 -0.000002 0.000002 0.652291 9.453777 -24.541992 0.393041 2.026043 -21.955947 0.000001 -0.000000 -0.000002 0.643641 9.449194 -24.541274 0.384716 2.021085 -21.956388 -0.000001 -0.000001 -0.000002 0.000001 0.000001 0.000001 18.311836 13.497350 -7.979217 -29.297205 10.275802 43.682529 -39.182456 60.008799 40.506174 -15.081136 -0.977417 14.319030 40.076142 0.945876 20.753853 5.156835 -21.099658 -19.108101 0.000000 0.000003 0.000001 18.327833 0.099108 38.977960 -3.924272 9.265830 32.256268 0.000000 0.000001 0.000002 -3.492532 -2.447888 34.024516 0.778391 -2.790414 31.036981 0.000004 0.000001 0.000002 -12.757990 -10.091658 31.801002 -8.974649 -8.729468 30.664155 0.000001 -0.000001 0.000000 -16.765427 -2.967983 36.666351 0.750509 -2.749770 30.591417 -0.000003 0.000000 0.000000 -0.000002 -0.000002 -0.000000 -0.000004 -0.000000 -0.000000 -0.000004 -0.000000 -0.000000 -0.000004 -0.000000 -0.000000 -0.000004 -0.000000 -0.000000 -0.000004 -0.000000 -0.000000 -0.000002 -0.000000 -0.000000 -0.000004 -0.000000 -0.000000 -0.000004 -0.000000 -0.000000 -0.000002 -0.000000 -0.000000 0.000003 0.000000 -0.000000 0.000003 0.000000 -0.000000 0.000000 0.000000 0.000000 
-0.108062 72.975296 -0.290318 -0.219064 0.006578 -1.138465 -0.000000 0.000000 0.000000 -37.247866 1.583237 26.169113 48.981226 -4.759551 -8.383070 -11.688356 -8.198802 -9.519968 -0.000000 -0.000000 -0.000000 -0.000000 -0.000000 -0.000000 0.000001 -0.000001 0.000000 -40.372719 -11.986368 -22.324226 49.605359 5.976087 -2.706831 -10.818176 3.370981 12.151588 -0.000000 -0.000001 0.000000 -0.000000 -0.000001 0.000000 -0.000001 0.000002 -0.000001 16.587063 0.269033 0.410798 20.120134 0.466622 0.900451 12.592763 0.361983 0.926946 2.999091 -0.914438 0.126771 -21.593621 3.050053 -1.424854 0.000002 -0.000000 -0.000000 0.000002 -0.000000 -0.000000 0.000002 -0.000000 -0.000000 20.447409 -17.622836 8.704379 -33.653291 -17.351267 -36.847535 -2.654646 -52.139970 -20.420160 -54.778633 -19.489427 -15.003180 36.774544 8.584272 -16.863121 2.295281 23.044184 15.130537 -0.000005 -0.000001 -0.000000 0.652346 9.453941 -24.543697 0.393116 2.026195 -21.957648 -0.000002 -0.000001 -0.000002 0.652335 9.453940 -24.543694 0.393112 2.026197 -21.957663 0.000003 -0.000000 0.000002 0.652294 9.453778 -24.541990 0.393036 2.026045 -21.955947 0.000003 -0.000001 -0.000002 0.643639 9.449197 -24.541273 0.384719 2.021086 -21.956389 -0.000003 -0.000001 0.000001 0.000002 -0.000000 0.000001 18.312558 13.494660 -7.976701 -29.339829 10.314538 43.690511 -39.232221 60.045948 40.562847 -15.306493 -0.817569 13.843190 40.047113 1.017481 20.729810 5.155087 -21.093629 -19.107270 0.000002 0.000000 0.000000 18.126620 0.027203 38.071604 -4.035103 9.152854 32.948699 0.000000 -0.000003 0.000001 -3.729807 -2.177478 33.155736 0.812386 -2.846096 31.728356 0.000003 0.000001 0.000002 -13.101888 -9.684255 30.975898 -8.870545 -8.900899 31.343410 0.000002 0.000001 0.000002 -16.743469 -2.862006 36.408422 0.777471 -2.795000 31.149184 -0.000002 -0.000000 0.000000 0.000000 0.000000 0.000001 0.000001 -0.000000 0.000000 0.000001 -0.000000 0.000000 0.000001 -0.000000 0.000000 0.000001 -0.000000 0.000000 0.000001 -0.000000 0.000000 0.000003 -0.000000 -0.000000 0.000001 -0.000000 0.000000 0.000001 -0.000000 0.000000 0.000003 -0.000000 -0.000000 0.000001 0.000000 -0.000000 0.000001 0.000000 -0.000000 -0.000000 0.000000 0.000000 
-0.110320 72.970833 -0.265482 -0.177544 0.016793 -1.156153 -0.000000 -0.000000 0.000000 -37.287266 1.558141 26.179253 49.014165 -4.763723 -8.375708 -11.722835 -8.193480 -9.530581 0.000000 0.000000 -0.000000 0.000000 0.000000 0.000000 0.000000 0.000000 -0.000001 -40.387366 -11.984322 -22.322491 49.619350 6.024052 -2.688852 -10.854210 3.344941 12.148360 0.000000 0.000000 -0.000000 0.000000 0.000000 -0.000000 0.000001 0.000000 0.000001 16.584645 0.269332 0.410810 20.113592 0.463001 0.900564 12.585721 0.358481 0.926628 3.017665 -0.913451 0.126991 -21.447624 3.057236 -1.395324 0.000002 0.000000 -0.000000 0.000002 0.000000 -0.000000 0.000002 0.000000 -0.000000 20.450811 -17.610946 8.702234 -33.742582 -17.364337 -36.839660 -2.684035 -52.166683 -20.455687 -54.768026 -19.466975 -14.974215 36.774551 8.584272 -16.863126 2.295285 23.044184 15.130539 -0.000001 -0.000000 -0.000000 0.652344 9.453944 -24.543699 0.393113 2.026199 -21.957644 -0.000005 0.000001 -0.000003 0.652334 9.453942 -24.543694 0.393110 2.026198 -21.957663 0.000000 -0.000001 -0.000002 0.652291 9.453780 -24.541988 0.393040 2.026046 -21.955947 -0.000000 0.000002 -0.000002 0.643639 9.449199 -24.541273 0.384713 2.021084 -21.956391 0.000002 0.000000 -0.000002 0.000002 -0.000001 0.000001 18.313002 13.490859 -7.973555 -29.399125 10.356359 43.713866 -39.258271 60.095153 40.603979 -15.577619 -0.619497 13.292765 40.045362 1.023728 20.727893 5.150859 -21.078848 -19.105287 0.000000 0.000001 -0.000001 17.910651 -0.038842 37.111047 -4.148906 9.033910 33.668755 0.000000 -0.000001 0.000002 -3.978123 -1.880906 32.239152 0.848471 -2.903586 32.447862 0.000005 -0.000001 0.000003 -13.460296 -9.241659 30.109079 -8.760003 -9.077998 32.050909 -0.000003 -0.000000 0.000000 -16.719808 -2.750369 36.136349 0.806369 -2.842332 31.736525 -0.000001 0.000000 0.000000 0.000003 -0.000003 -0.000000 -0.000001 0.000000 0.000000 -0.000001 0.000000 0.000000 -0.000001 0.000000 0.000000 -0.000001 0.000000 0.000000 -0.000001 0.000000 -0.000000 0.000000 0.000000 -0.000000 -0.000001 0.000000 0.000000 -0.000001 0.000000 -0.000000 0.000000 0.000000 -0.000000 -0.000001 -0.000000 -0.000000 -0.000001 -0.000000 -0.000000 -0.000000 -0.000000 0.000000 
-0.114538 72.971062 -0.238075 -0.130084 0.025439 -1.171000 0.000000 0.000000 -0.000000 -37.317644 1.532469 26.184141 49.028102 -4.766302 -8.371000 -11.752794 -8.184316 -9.542538 -0.000000 0.000000 -0.000000 -0.000000 0.000000 0.000000 -0.000002 0.000000 -0.000000 -40.398581 -11.983681 -22.320126 49.618906 6.072784 -2.670968 -10.886331 3.319045 12.145299 0.000000 0.000000 0.000000 0.000000 0.000000 0.000000 -0.000000 0.000002 0.000001 16.577974 0.269133 0.410711 20.098872 0.459005 0.900949 12.570986 0.354163 0.926946 3.037516 -0.912495 0.127777 -21.286561 3.064070 -1.372646 0.000001 -0.000000 -0.000000 0.000001 -0.000000 -0.000000 0.000001 -0.000000 -0.000000 20.455336 -17.593778 8.698633 -33.831249 -17.385796 -36.840917 -2.723175 -52.193031 -20.494027 -54.756510 -19.448028 -14.943933 36.774548 8.584268 -16.863126 2.295279 23.044186 15.130537 -0.000004 -0.000000 -0.000001 0.652346 9.453944 -24.543699 0.393119 2.026197 -21.957655 0.000002 -0.000001 -0.000004 0.652337 9.453941 -24.543694 0.393116 2.026192 -21.957660 0.000003 -0.000001 0.000000 0.652296 9.453775 -24.541988 0.393037 2.026046 -21.955949 -0.000002 0.000000 -0.000006 0.643641 9.449195 -24.541273 0.384715 2.021089 -21.956389 -0.000003 0.000000 -0.000000 0.000001 0.000001 -0.000002 18.312707 13.487377 -7.967860 -29.471047 10.400512 43.745791 -39.260170 60.150245 40.625053 -15.898614 -0.380988 12.678744 40.013639 1.097087 20.702886 5.156281 -21.097819 -19.107844 -0.000002 -0.000001 -0.000001 17.681673 -0.097485 36.099175 -4.265465 8.908851 34.416299 0.000003 -0.000000 -0.000002 -4.234728 -1.557859 31.278001 0.886729 -2.962824 33.195423 0.000002 0.000000 -0.000000 -13.829677 -8.763857 29.204028 -8.642771 -9.260528 32.786633 -0.000001 0.000001 0.000002 -16.694301 -2.632871 35.849744 0.837282 -2.891828 32.354743 -0.000007 0.000000 0.000000 -0.000000 -0.000001 -0.000002 0.000003 -0.000000 0.000000 0.000003 -0.000000 0.000000 0.000003 -0.000000 0.000000 0.000003 -0.000000 0.000000 0.000003 -0.000000 -0.000000 0.000005 -0.000000 -0.000000 0.000003 -0.000000 0.000000 0.000003 -0.000000 -0.000000 0.000005 -0.000000 -0.000000 0.000002 -0.000000 -0.000000 0.000002 -0.000000 -0.000000 0.000000 0.000000 -0.000000 
